<svg width="93" height="106" viewBox="0 0 93 106" fill="none" xmlns="http://www.w3.org/2000/svg">
<path d="M88.6171 24.4949L88.6148 24.4935L49.8802 1.90991C49.8799 1.90973 49.8796 1.90955 49.8793 1.90937C47.786 0.696878 45.214 0.696878 43.1208 1.90937C43.1204 1.90955 43.1201 1.90973 43.1198 1.90991L4.38526 24.4935L4.38295 24.4949C2.29343 25.7056 1 27.9794 1 30.4151V75.585C1 78.0391 2.29223 80.2937 4.38295 81.5051L4.38526 81.5065L43.1198 104.09C45.2135 105.303 47.7865 105.303 49.8802 104.09L88.614 81.507L88.6171 24.4949ZM88.6171 24.4949C90.7078 25.7063 92 27.9609 92 30.4151V75.585M88.6171 24.4949L92 75.585M92 75.585C92 78.0164 90.6903 80.2935 88.6148 81.5065L92 75.585Z" stroke="url(#paint0_linear_4_12)" stroke-width="2"/>
<defs>
<linearGradient id="paint0_linear_4_12" x1="6.64286" y1="4.59055" x2="77.7227" y2="108.999" gradientUnits="userSpaceOnUse">
<stop stop-color="#D4145A"/>
<stop offset="1" stop-color="#2E3192"/>
</linearGradient>
</defs>
</svg>
